<?xml version="1.0" encoding="UTF-8" standalone="no"?>
<svg width="19px" height="20px" viewBox="0 0 19 20" version="1.1" xmlns="http://www.w3.org/2000/svg" xmlns:xlink="http://www.w3.org/1999/xlink">
    <!-- Generator: Sketch 50.2 (55047) - http://www.bohemiancoding.com/sketch -->
    <title>Clip 19</title>
    <desc>Created with Sketch.</desc>
    <defs></defs>
    <g id="Symbols" stroke="none" stroke-width="1" fill="none" fill-rule="evenodd">
        <g id="section:footer" transform="translate(-187.000000, -351.000000)" fill="#FFFFFF">
            <g id="social_icons">
                <g transform="translate(120.000000, 351.000000)">
                    <path d="M76.5,1.80181818 C79.0365,1.80181818 79.3370455,1.81181818 80.3388636,1.86 C81.2651136,1.90454545 81.7681818,2.06772727 82.1028409,2.20454545 C82.5463182,2.38590909 82.8628409,2.60272727 83.1953409,2.95227273 C83.5274091,3.30227273 83.7333864,3.63545455 83.9056818,4.10227273 C84.0356591,4.45454545 84.1906818,4.98409091 84.233,5.95909091 C84.2787727,7.01363636 84.2882727,7.33 84.2882727,10 C84.2882727,12.67 84.2787727,12.9863636 84.233,14.0409091 C84.1906818,15.0159091 84.0356591,15.5454545 83.9056818,15.8977273 C83.7333864,16.3645455 83.5274091,16.6977273 83.1953409,17.0477273 C82.8628409,17.3972727 82.5463182,17.6140909 82.1028409,17.7954545 C81.7681818,17.9327273 81.2651136,18.0954545 80.3388636,18.14 C79.3370455,18.1881818 79.0369318,18.1981818 76.5,18.1981818 C73.9630682,18.1981818 73.6629545,18.1881818 72.6611364,18.14 C71.7348864,18.0954545 71.2318182,17.9327273 70.8971591,17.7954545 C70.4536818,17.6140909 70.1371591,17.3972727 69.8046591,17.0477273 C69.4725909,16.6977273 69.2666136,16.3645455 69.0943182,15.8977273 C68.9639091,15.5454545 68.8093182,15.0159091 68.767,14.0409091 C68.7212273,12.9863636 68.7117273,12.67 68.7117273,10 C68.7117273,7.33 68.7212273,7.01363636 68.767,5.95909091 C68.8093182,4.98409091 68.9639091,4.45454545 69.0943182,4.10227273 C69.2666136,3.63545455 69.4725909,3.30227273 69.8046591,2.95227273 C70.1371591,2.60272727 70.4536818,2.38590909 70.8971591,2.20454545 C71.2318182,2.06772727 71.7348864,1.90454545 72.6611364,1.86 C73.6629545,1.81181818 73.9635,1.80181818 76.5,1.80181818 L76.5,1.80181818 Z M76.5,0 C73.9198864,0 73.5964545,0.0113636364 72.5829773,0.06 C71.5720909,0.108636364 70.8816136,0.277727273 70.2770682,0.525 C69.6522273,0.780454545 69.1223864,1.12227273 68.5942727,1.67818182 C68.0661591,2.23454545 67.7414318,2.79181818 67.49875,3.44954545 C67.2638409,4.08590909 67.1032045,4.81272727 67.057,5.87681818 C67.0107955,6.94363636 67,7.28409091 67,10 C67,12.7159091 67.0107955,13.0563636 67.057,14.1231818 C67.1032045,15.1872727 67.2638409,15.9140909 67.49875,16.5504545 C67.7414318,17.2081818 68.0661591,17.7654545 68.5942727,18.3213636 C69.1223864,18.8777273 69.6522273,19.2195455 70.2770682,19.475 C70.8816136,19.7222727 71.5720909,19.8913636 72.5829773,19.94 C73.5964545,19.9886364 73.9198864,20 76.5,20 C79.0801136,20 79.4035455,19.9886364 80.4165909,19.94 C81.4279091,19.8913636 82.1183864,19.7222727 82.7229318,19.475 C83.3477727,19.2195455 83.8771818,18.8777273 84.4052955,18.3213636 C84.9338409,17.7654545 85.2585682,17.2081818 85.50125,16.5504545 C85.7361591,15.9140909 85.8967955,15.1872727 85.943,14.1231818 C85.9892045,13.0563636 86,12.7159091 86,10 C86,7.28409091 85.9892045,6.94363636 85.943,5.87681818 C85.8967955,4.81272727 85.7361591,4.08590909 85.50125,3.44954545 C85.2585682,2.79181818 84.9338409,2.23454545 84.4052955,1.67818182 C83.8771818,1.12227273 83.3477727,0.780454545 82.7229318,0.525 C82.1183864,0.277727273 81.4279091,0.108636364 80.4165909,0.06 C79.4035455,0.0113636364 79.0801136,0 76.5,0 L76.5,0 Z M76.519,4.88090909 C73.8227273,4.88090909 71.6368636,7.18181818 71.6368636,10.02 C71.6368636,12.8577273 73.8227273,15.1586364 76.519,15.1586364 C79.2148409,15.1586364 81.4007045,12.8577273 81.4007045,10.02 C81.4007045,7.18181818 79.2148409,4.88090909 76.519,4.88090909 L76.519,4.88090909 Z M76.519,13.3554545 C74.7688409,13.3554545 73.3498864,11.8622727 73.3498864,10.02 C73.3498864,8.17772727 74.7688409,6.68409091 76.519,6.68409091 C78.2691591,6.68409091 79.6876818,8.17772727 79.6876818,10.02 C79.6876818,11.8622727 78.2691591,13.3554545 76.519,13.3554545 L76.519,13.3554545 Z M82.6823409,4.64272727 C82.6823409,5.30045455 82.17625,5.83318182 81.5514091,5.83318182 C80.927,5.83318182 80.4204773,5.30045455 80.4204773,4.64272727 C80.4204773,3.98545455 80.927,3.45227273 81.5514091,3.45227273 C82.17625,3.45227273 82.6823409,3.98545455 82.6823409,4.64272727 L82.6823409,4.64272727 Z" id="Clip-19"></path>
                </g>
            </g>
        </g>
    </g>
</svg>